<mxfile host="app.diagrams.net" modified="2023-11-28T08:37:41.941Z" agent="Mozilla/5.0 (Windows NT 10.0; Win64; x64) AppleWebKit/537.36 (KHTML, like Gecko) Chrome/116.0.5845.686 YaBrowser/23.9.5.686 Yowser/2.5 Safari/537.36" etag="IFHZ4fitREIWfn-LbgUw" version="22.1.4" type="device">
  <diagram id="OX_80rjI8cFLr3eGfx-P" name="Страница 1">
    <mxGraphModel dx="2475" dy="1373" grid="1" gridSize="10" guides="1" tooltips="1" connect="1" arrows="1" fold="1" page="1" pageScale="1" pageWidth="827" pageHeight="1169" math="0" shadow="0">
      <root>
        <mxCell id="0" />
        <mxCell id="1" parent="0" />
        <mxCell id="Mt-ZFqP_kDH-Bsq6fYom-2" value="&lt;b&gt;&lt;font style=&quot;font-size: 21px;&quot;&gt;Frontend&lt;/font&gt;&lt;/b&gt;" style="strokeWidth=2;html=1;shape=mxgraph.flowchart.start_1;whiteSpace=wrap;fillColor=#f5f5f5;fontColor=#333333;strokeColor=#666666;" parent="1" vertex="1">
          <mxGeometry y="220" width="120" height="80" as="geometry" />
        </mxCell>
        <mxCell id="Mt-ZFqP_kDH-Bsq6fYom-4" value="" style="html=1;shadow=0;dashed=0;align=center;verticalAlign=middle;shape=mxgraph.arrows2.twoWayArrow;dy=0.71;dx=23.63;fontSize=21;" parent="1" vertex="1">
          <mxGeometry x="120" y="252.5" width="60" height="15" as="geometry" />
        </mxCell>
        <mxCell id="Mt-ZFqP_kDH-Bsq6fYom-6" value="&lt;b&gt;Applayer&lt;/b&gt;" style="rounded=1;whiteSpace=wrap;html=1;absoluteArcSize=1;arcSize=14;strokeWidth=2;fontSize=21;fillColor=#dae8fc;strokeColor=#6c8ebf;" parent="1" vertex="1">
          <mxGeometry x="180" y="210" width="100" height="100" as="geometry" />
        </mxCell>
        <mxCell id="Mt-ZFqP_kDH-Bsq6fYom-7" value="" style="html=1;shadow=0;dashed=0;align=center;verticalAlign=middle;shape=mxgraph.arrows2.twoWayArrow;dy=0.71;dx=23.63;fontSize=21;" parent="1" vertex="1">
          <mxGeometry x="280" y="252.5" width="60" height="15" as="geometry" />
        </mxCell>
        <mxCell id="Mt-ZFqP_kDH-Bsq6fYom-8" value="&lt;b&gt;BFF&lt;/b&gt;" style="rounded=1;whiteSpace=wrap;html=1;absoluteArcSize=1;arcSize=14;strokeWidth=2;fontSize=21;fillColor=#d5e8d4;strokeColor=#82b366;" parent="1" vertex="1">
          <mxGeometry x="340" y="210" width="100" height="100" as="geometry" />
        </mxCell>
        <mxCell id="Mt-ZFqP_kDH-Bsq6fYom-9" value="" style="html=1;shadow=0;dashed=0;align=center;verticalAlign=middle;shape=mxgraph.arrows2.twoWayArrow;dy=0.71;dx=23.63;fontSize=21;" parent="1" vertex="1">
          <mxGeometry x="440" y="252.5" width="60" height="15" as="geometry" />
        </mxCell>
        <mxCell id="Mt-ZFqP_kDH-Bsq6fYom-10" value="&lt;b&gt;Server&lt;/b&gt;" style="rounded=1;whiteSpace=wrap;html=1;absoluteArcSize=1;arcSize=14;strokeWidth=2;fontSize=21;fillColor=#ffe6cc;strokeColor=#d79b00;" parent="1" vertex="1">
          <mxGeometry x="500" y="210" width="100" height="100" as="geometry" />
        </mxCell>
        <mxCell id="Mt-ZFqP_kDH-Bsq6fYom-14" value="&lt;b&gt;Vendors&lt;/b&gt;" style="strokeWidth=2;html=1;shape=mxgraph.flowchart.start_1;whiteSpace=wrap;fontSize=21;fillColor=#99FFFF;strokeColor=#b85450;" parent="1" vertex="1">
          <mxGeometry x="667" y="200" width="160" height="50" as="geometry" />
        </mxCell>
        <mxCell id="Mt-ZFqP_kDH-Bsq6fYom-16" value="&lt;b&gt;Databases&lt;/b&gt;" style="strokeWidth=2;html=1;shape=mxgraph.flowchart.start_1;whiteSpace=wrap;fontSize=21;fillColor=#7EA6E0;strokeColor=#d6b656;" parent="1" vertex="1">
          <mxGeometry x="660" y="130" width="160" height="45.63" as="geometry" />
        </mxCell>
        <mxCell id="bslzfCvgjEKtekaD7qro-1" value="&lt;b&gt;Statistics&lt;/b&gt;" style="strokeWidth=2;html=1;shape=mxgraph.flowchart.start_1;whiteSpace=wrap;fontSize=21;fillColor=#FFFF00;strokeColor=#b85450;" vertex="1" parent="1">
          <mxGeometry x="667" y="350" width="160" height="50" as="geometry" />
        </mxCell>
        <mxCell id="bslzfCvgjEKtekaD7qro-2" value="&lt;b&gt;Configurations&lt;/b&gt;" style="strokeWidth=2;html=1;shape=mxgraph.flowchart.start_1;whiteSpace=wrap;fontSize=21;fillColor=#FF66FF;strokeColor=#b85450;" vertex="1" parent="1">
          <mxGeometry x="680" y="267.5" width="160" height="50" as="geometry" />
        </mxCell>
        <mxCell id="bslzfCvgjEKtekaD7qro-5" value="" style="shape=flexArrow;endArrow=classic;startArrow=classic;html=1;rounded=0;" edge="1" parent="1">
          <mxGeometry width="100" height="100" relative="1" as="geometry">
            <mxPoint x="600" y="210" as="sourcePoint" />
            <mxPoint x="660" y="150" as="targetPoint" />
          </mxGeometry>
        </mxCell>
        <mxCell id="bslzfCvgjEKtekaD7qro-6" value="" style="shape=flexArrow;endArrow=classic;startArrow=classic;html=1;rounded=0;exitX=1;exitY=0.75;exitDx=0;exitDy=0;entryX=0.003;entryY=0.355;entryDx=0;entryDy=0;entryPerimeter=0;" edge="1" parent="1" source="Mt-ZFqP_kDH-Bsq6fYom-10" target="bslzfCvgjEKtekaD7qro-2">
          <mxGeometry width="100" height="100" relative="1" as="geometry">
            <mxPoint x="607" y="350" as="sourcePoint" />
            <mxPoint x="667" y="290" as="targetPoint" />
          </mxGeometry>
        </mxCell>
        <mxCell id="bslzfCvgjEKtekaD7qro-7" value="" style="shape=flexArrow;endArrow=classic;startArrow=classic;html=1;rounded=0;exitX=1;exitY=1;exitDx=0;exitDy=0;" edge="1" parent="1" source="Mt-ZFqP_kDH-Bsq6fYom-10">
          <mxGeometry width="100" height="100" relative="1" as="geometry">
            <mxPoint x="600" y="420" as="sourcePoint" />
            <mxPoint x="670" y="360" as="targetPoint" />
          </mxGeometry>
        </mxCell>
        <mxCell id="bslzfCvgjEKtekaD7qro-8" value="" style="shape=flexArrow;endArrow=classic;startArrow=classic;html=1;rounded=0;exitX=1;exitY=0.25;exitDx=0;exitDy=0;" edge="1" parent="1" source="Mt-ZFqP_kDH-Bsq6fYom-10">
          <mxGeometry width="100" height="100" relative="1" as="geometry">
            <mxPoint x="607" y="280" as="sourcePoint" />
            <mxPoint x="667" y="220" as="targetPoint" />
          </mxGeometry>
        </mxCell>
      </root>
    </mxGraphModel>
  </diagram>
</mxfile>
